<?xml version="1.0" standalone="no"?><!DOCTYPE svg PUBLIC "-//W3C//DTD SVG 1.1//EN" "http://www.w3.org/Graphics/SVG/1.1/DTD/svg11.dtd"><svg class="icon" width="128px" height="128.00px" viewBox="0 0 1024 1024" version="1.1" xmlns="http://www.w3.org/2000/svg"><path fill="#707070" d="M130.859008 309.035008c59.551744 63.721472 142.072832 113.575936 223.08352 141.656064 204.224512 70.776832 400.790528-0.528384 558.675968-141.656064 29.75232-26.591232 73.49248 17.729536 43.543552 44.488704-20.455424 18.286592-41.659392 35.634176-63.526912 51.862528 18.356224 36.08064 36.703232 72.1408 55.06048 108.20096 18.302976 35.960832-34.85696 67.776512-53.19168 31.752192-19.87584-39.112704-39.785472-78.168064-59.669504-117.248l6.393856 12.560384c-36.478976 23.02464-74.477568 42.846208-113.641472 58.73664l44.539904 116.064256c14.374912 37.4528-43.885568 53.720064-58.943488 17.829888l-0.443392-1.103872-43.1616-112.452608c-40.722432 12.041216-82.463744 19.688448-124.855296 22.187008l-4.576256 0.249856 0.038912 0.759808c0.01024 0.258048 0.018432 0.518144 0.023552 0.77824l0.008192 0.790528v132.120576c0 40.169472-60.362752 40.57088-61.570048 1.205248l-0.018432-1.205248V544.49152c0-0.999424 0.036864-1.974272 0.109568-2.924544-41.269248-2.881536-82.967552-10.881024-124.76416-24.659968-0.965632-0.31744-1.932288-0.638976-2.89792-0.96256l-47.02208 122.540032c-14.179328 36.954112-72.711168 21.413888-59.800576-15.599616l0.413696-1.128448 47.20128-123.000832a36.702208 36.702208 0 0 1 2.12992-4.595712c-36.094976-15.526912-71.549952-34.24256-104.86784-56.02816-24.143872 31.972352-48.284672 63.9488-72.431616 95.904768-10.22976 13.568-26.24512 20.799488-42.12736 11.29472-12.962816-7.76192-21.16608-29.000704-11.352064-42.628096l0.303104-0.4096 75.836416-100.410368c-18.518016-15.033344-35.97824-31.161344-52.051968-48.359424-27.411456-29.32736 16.0768-73.879552 43.551744-44.488704z m409.28768 233.11872v0.009216-0.01024z"  /></svg>