<?xml version="1.0" standalone="no"?><!DOCTYPE svg PUBLIC "-//W3C//DTD SVG 1.1//EN" "http://www.w3.org/Graphics/SVG/1.1/DTD/svg11.dtd"><svg class="icon" width="128px" height="128.00px" viewBox="0 0 1024 1024" version="1.1" xmlns="http://www.w3.org/2000/svg"><path fill="#707070" d="M355.555328 426.0864c51.280896 0 99.54304 12.923904 141.70624 35.692544l-29.313024 48.852992c-33.57696-17.661952-71.81824-27.656192-112.393216-27.656192-133.19168 0-241.229824 107.700224-241.775616 240.763904 0.043008 0.589824 0.06144 1.183744 0.06144 1.78176 0 15.70816-12.734464 28.443648-28.444672 28.443648-15.70816 0-28.443648-12.735488-28.443648-28.444672 0-0.256 0.003072-0.512 0.01024-0.768h-0.073728c0-164.947968 133.716992-298.665984 298.665984-298.665984zM321.15712 200.3968l0.47104 0.003072c15.492096 0.25088 27.973632 12.888064 27.973632 28.440576 0 15.709184-12.735488 28.444672-28.444672 28.444672-47.128576 0-85.332992 38.20544-85.332992 85.332992 0 47.128576 38.20544 85.334016 85.332992 85.334016v56.88832c-78.546944 0-142.222336-63.674368-142.222336-142.222336 0-78.546944 63.675392-142.222336 142.22336-142.222336zM566.509568 482.43712c186.628096 0 338.27328 149.779456 341.287936 335.688704l0.045056 5.645312H850.95424c0-155.524096-124.81536-281.894912-279.74144-284.406784l-4.703232-0.037888c-155.523072 0-281.894912 124.81536-284.40576 279.740416l-0.038912 4.704256H225.1776c0-188.51328 152.819712-341.334016 341.332992-341.334016z m-245.353472-54.48704c15.709184 0 28.444672 12.735488 28.444672 28.444672 0 15.710208-12.735488 28.444672-28.444672 28.444672s-28.444672-12.734464-28.444672-28.444672c0-15.70816 12.735488-28.443648 28.444672-28.443648z m-67.535872 367.376384c15.710208 0 28.444672 12.734464 28.444672 28.444672 0 15.70816-12.734464 28.443648-28.444672 28.443648-15.70816 0-28.443648-12.734464-28.443648-28.443648 0-15.710208 12.734464-28.444672 28.443648-28.444672z m625.777664 0c15.710208 0 28.444672 12.734464 28.444672 28.444672 0 15.70816-12.734464 28.443648-28.444672 28.443648-15.70816 0-28.443648-12.734464-28.443648-28.443648 0-15.710208 12.734464-28.444672 28.443648-28.444672zM568.037376 455.110656c78.546944 0 142.222336-63.674368 142.222336-142.221312 0-78.547968-63.675392-142.22336-142.222336-142.22336-78.546944 0-142.222336 63.675392-142.222336 142.22336 0 78.546944 63.675392 142.221312 142.222336 142.221312z m0 56.889344c-109.966336 0-199.110656-89.145344-199.110656-199.110656 0-109.96736 89.14432-199.11168 199.110656-199.11168 109.966336 0 199.110656 89.145344 199.110656 199.11168C767.148032 422.854656 678.003712 512 568.037376 512z"  /></svg>